<svg
  width="100%"
  height="100%"
  viewBox="0 0 441 441"
  version="1.1"
  xmlns="http://www.w3.org/2000/svg"
  xmlns:xlink="http://www.w3.org/1999/xlink"
  xml:space="preserve"
  xmlns:serif="http://www.serif.com/"
  style="fill-rule: evenodd; clip-rule: evenodd; stroke-linejoin: round; stroke-miterlimit: 2"
>
  <g
    transform="matrix(0.0920293,0.00428099,-0.00428099,0.0920293,-28.1272,-500.301)"
  >
    <path
      d="M3053.7,5296.9C4371.65,5296.9 5441.66,6366.91 5441.66,7684.86C5441.66,9002.81 4371.65,10072.8 3053.7,10072.8C1735.75,10072.8 665.74,9002.81 665.74,7684.86C665.74,6366.91 1735.75,5296.9 3053.7,5296.9ZM3745.03,8143.22C3594.12,8142.82 3444.31,8124.57 3323.87,8110.15C3232.29,8099.18 3144.99,8079.23 3073.1,8058.23C3061.36,8054.62 3048.65,8059.09 3041.75,8069.24C3034.86,8079.4 3034.46,8093.71 3043.09,8102.44C3078.21,8137.94 3187.74,8210.21 3271.7,8241.83C3204.04,8303.2 3162.1,8438.28 3146.33,8507.94C3125.17,8601.4 3127.75,8734.83 3136.19,8783.45C3170.14,8979.04 3250.69,9151.99 3436.99,9297.9C3567.4,9400.03 3752.28,9465.38 3937.88,9460.06C4194.01,9452.71 4495.48,9328.51 4724.65,9070.17C5023.25,8710.58 5208.52,8252.45 5223.47,7749.5C5259.08,6551.9 4315.7,5550.69 3118.1,5515.08C1920.51,5479.47 919.301,6422.86 883.689,7620.45C865.246,8240.66 1109.37,8808.21 1515.43,9216.2C1526.73,9227.39 1544.21,9229.43 1557.78,9221.14C1571.35,9212.85 1577.51,9196.36 1572.7,9181.2C1234.07,8072.55 1799.11,6832.64 2474.84,6417.1C2725.71,6262.82 2973.99,6197.06 3203.56,6277.7C3555.04,6401.15 3763.03,6623.26 4199.06,6797.93C4635.09,6972.59 4696.35,7294.74 4592.58,7628.14C4488.81,7961.54 4113,8144.17 3745.03,8143.22ZM2917.17,6442.51C2777.75,6459.97 2693.93,6637.44 2687.08,6749.42C2680.18,6861.39 2744.03,7042.7 2926.19,7030.63C3139.52,7016.49 3195.89,6830.7 3164.24,6654.94C3140.48,6522.94 3033.73,6427.9 2917.17,6442.51Z"
      style="fill: white"
    />
  </g>
</svg>
