<?xml version="1.0" standalone="no"?>
<!DOCTYPE svg PUBLIC "-//W3C//DTD SVG 20010904//EN"
 "http://www.w3.org/TR/2001/REC-SVG-20010904/DTD/svg10.dtd">
<svg version="1.0" xmlns="http://www.w3.org/2000/svg"
 width="1646.000000pt" height="1646.000000pt" viewBox="0 0 1646.000000 1646.000000"
 preserveAspectRatio="xMidYMid meet">
<metadata>
Created by potrace 1.16, written by Peter Selinger 2001-2019
</metadata>
<g transform="translate(0.000000,1646.000000) scale(0.100000,-0.100000)"
fill="#000000" stroke="none">
<path d="M0 8230 l0 -8230 8230 0 8230 0 0 8230 0 8230 -8230 0 -8230 0 0
-8230z m12140 4400 c0 -5 14 -10 30 -10 17 0 30 -4 30 -10 0 -5 8 -10 18 -10
10 0 24 -9 32 -20 8 -11 20 -20 28 -20 17 0 82 -65 82 -82 0 -8 9 -20 20 -28
11 -8 20 -22 20 -32 0 -10 5 -18 10 -18 6 0 10 -13 10 -30 0 -16 5 -30 10 -30
6 0 10 -47 10 -120 0 -73 -4 -120 -10 -120 -5 0 -10 -9 -10 -20 0 -11 -4 -20
-10 -20 -5 0 -10 -9 -10 -20 0 -11 -4 -20 -10 -20 -5 0 -10 -7 -10 -15 0 -8
-1030 -1046 -2290 -2305 -1259 -1259 -2290 -2292 -2290 -2295 0 -3 288 -5 640
-5 l640 0 0 119 c0 95 3 120 14 124 10 4 13 1 9 -9 -3 -9 2 -14 16 -14 12 0
21 -4 21 -10 0 -5 9 -10 20 -10 11 0 20 -4 20 -10 0 -5 9 -10 19 -10 11 0 22
-6 24 -12 4 -10 8 -9 17 2 9 11 13 12 17 3 2 -7 11 -13 20 -13 8 0 28 -14 43
-30 16 -17 33 -29 38 -28 5 2 18 -6 28 -17 11 -12 30 -22 42 -22 13 -1 32 -12
42 -23 11 -12 24 -19 30 -15 5 3 13 -1 16 -10 4 -9 13 -14 21 -11 7 3 16 -1
19 -9 4 -8 15 -15 25 -15 18 0 19 -9 19 -120 0 -73 -4 -120 -10 -120 -5 0 -10
-13 -10 -30 0 -16 -4 -30 -10 -30 -5 0 -10 -7 -10 -15 0 -8 -34 -49 -75 -90
-41 -41 -82 -75 -90 -75 -8 0 -15 -4 -15 -10 0 -5 -13 -10 -30 -10 -16 0 -30
-4 -30 -10 0 -6 -110 -10 -310 -10 -200 0 -310 -4 -310 -10 0 -7 -252 -10
-735 -10 l-735 0 -465 -465 c-256 -256 -465 -467 -465 -470 0 -3 963 -5 2140
-5 l2140 0 0 470 c0 425 4 505 23 458 4 -10 8 -9 16 2 9 13 12 13 20 1 5 -7
14 -10 20 -7 8 5 8 -1 1 -21 -10 -27 -9 -27 6 -8 16 20 16 20 11 -2 -3 -15 -1
-20 9 -16 8 3 11 10 7 16 -4 6 -1 7 8 1 8 -5 19 -9 24 -9 6 0 11 -10 13 -22 4
-25 21 -30 39 -12 8 8 11 6 10 -6 -1 -11 6 -19 21 -21 15 -3 21 0 17 7 -4 6 2
5 13 -2 12 -7 18 -18 15 -24 -3 -5 0 -4 7 2 17 16 40 -1 41 -31 0 -21 1 -21
10 -1 8 17 9 16 6 -8 -4 -22 -2 -25 9 -16 8 6 11 16 7 23 -4 6 1 5 10 -3 9 -7
17 -19 17 -26 0 -7 8 -19 17 -26 10 -8 14 -9 10 -2 -4 6 -3 14 3 18 5 3 10 1
10 -4 0 -6 5 -11 10 -11 6 0 10 6 10 13 0 9 12 11 40 9 37 -4 40 -7 40 -33 0
-16 5 -29 10 -29 6 0 10 -137 10 -390 0 -253 -4 -390 -10 -390 -5 0 -10 -18
-10 -40 0 -22 -4 -40 -10 -40 -5 0 -10 -9 -10 -20 0 -11 -4 -20 -10 -20 -5 0
-10 -9 -10 -20 0 -11 -4 -20 -10 -20 -5 0 -10 -8 -10 -18 0 -10 -9 -24 -20
-32 -11 -8 -20 -20 -20 -28 0 -16 -65 -82 -81 -82 -6 0 -24 -13 -39 -30 -15
-16 -35 -30 -44 -30 -9 0 -16 -4 -16 -10 0 -5 -13 -10 -30 -10 -16 0 -30 -4
-30 -10 0 -5 -13 -10 -30 -10 -16 0 -30 -4 -30 -10 0 -7 -832 -10 -2475 -10
l-2475 0 -475 -475 c-261 -261 -475 -477 -475 -480 0 -3 378 -5 840 -5 553 0
840 -3 840 -10 0 -14 37 -12 44 3 5 10 7 10 12 0 7 -15 104 -18 104 -3 0 6 14
10 30 10 17 0 30 -4 30 -10 0 -7 870 -10 2590 -10 1720 0 2590 3 2590 10 0 6
13 10 28 10 16 0 34 8 42 20 8 11 20 20 28 20 17 0 62 45 62 62 0 8 9 20 20
28 12 8 20 26 20 42 0 15 5 28 10 28 7 0 10 237 10 690 0 453 3 690 10 691 38
5 45 2 48 -18 3 -18 9 -21 37 -19 27 3 32 1 28 -12 -5 -11 -2 -14 10 -9 11 4
14 2 10 -9 -4 -11 0 -14 20 -10 20 3 25 1 20 -12 -5 -11 -2 -14 10 -9 11 4 14
2 10 -9 -3 -7 0 -14 6 -14 6 0 11 6 11 13 0 8 6 14 14 14 8 0 12 -6 8 -15 -4
-11 -1 -14 12 -9 10 4 19 1 23 -9 3 -8 12 -13 19 -10 8 3 11 0 7 -10 -3 -7 0
-14 6 -14 6 0 11 6 11 13 0 9 10 13 28 11 15 -1 33 -2 40 -3 8 -1 12 -18 12
-51 0 -27 5 -50 10 -50 6 0 10 9 10 20 0 11 5 20 10 20 6 0 10 -9 10 -20 0
-11 5 -20 10 -20 6 0 10 9 10 20 0 16 7 20 30 20 23 0 30 -4 30 -20 0 -11 5
-20 10 -20 7 0 10 -197 10 -570 0 -373 -3 -570 -10 -570 -6 0 -10 -30 -10 -70
0 -40 -4 -70 -10 -70 -5 0 -10 -13 -10 -30 0 -16 -4 -30 -10 -30 -5 0 -10 -13
-10 -30 0 -16 -4 -30 -10 -30 -5 0 -10 -9 -10 -20 0 -11 -4 -20 -10 -20 -5 0
-10 -8 -10 -18 0 -10 -9 -24 -20 -32 -11 -8 -20 -21 -20 -30 0 -9 -9 -22 -20
-30 -11 -8 -20 -20 -20 -27 0 -16 -125 -143 -141 -143 -6 0 -24 -13 -39 -30
-15 -16 -35 -30 -44 -30 -9 0 -16 -4 -16 -10 0 -5 -9 -10 -20 -10 -11 0 -20
-4 -20 -10 0 -5 -9 -10 -20 -10 -11 0 -20 -4 -20 -10 0 -5 -13 -10 -30 -10
-16 0 -30 -4 -30 -10 0 -5 -13 -10 -30 -10 -16 0 -30 -4 -30 -10 0 -6 -27 -10
-60 -10 -33 0 -60 -4 -60 -10 0 -7 -1263 -10 -3770 -10 -2507 0 -3770 3 -3770
10 0 6 -18 10 -40 10 -22 0 -40 5 -40 10 0 6 -8 10 -18 10 -10 0 -24 9 -32 20
-8 11 -20 20 -28 20 -17 0 -82 65 -82 82 0 8 -9 20 -20 28 -11 8 -20 22 -20
32 0 10 -4 18 -10 18 -5 0 -10 14 -10 30 0 17 -4 30 -10 30 -6 0 -10 47 -10
120 0 73 4 120 10 120 6 0 10 9 10 20 0 11 5 20 10 20 6 0 10 9 10 20 0 11 5
20 10 20 6 0 10 7 10 15 0 8 1026 1041 2280 2295 1254 1254 2280 2282 2280
2285 0 3 -279 5 -620 5 l-620 0 0 -270 0 -270 -280 0 -280 0 0 380 c0 247 4
380 10 380 6 0 10 14 10 30 0 17 5 30 10 30 6 0 10 13 10 28 0 16 8 34 20 42
11 8 20 20 20 27 0 8 20 34 45 58 24 25 50 45 58 45 7 0 19 9 27 20 8 12 26
20 42 20 15 0 28 5 28 10 0 6 14 10 30 10 17 0 30 5 30 10 0 7 345 10 1015 10
l1015 0 475 475 c261 261 475 477 475 480 0 3 -963 5 -2140 5 l-2140 0 0
-1720 0 -1720 -270 0 -270 0 0 1790 c0 1187 3 1790 10 1790 6 0 10 14 10 30 0
17 5 30 10 30 6 0 10 9 10 20 0 11 5 20 10 20 6 0 10 9 10 20 0 11 5 20 10 20
6 0 10 7 10 15 0 20 145 165 165 165 8 0 15 5 15 10 0 6 9 10 20 10 11 0 20 5
20 10 0 6 9 10 20 10 11 0 20 5 20 10 0 6 14 10 30 10 17 0 30 5 30 10 0 7
530 10 1570 10 1040 0 1570 3 1570 10 0 6 18 10 40 10 22 0 40 -4 40 -10 0 -6
63 -10 170 -10 107 0 170 4 170 10 0 6 27 10 60 10 33 0 60 -4 60 -10 0 -15
97 -12 104 3 5 10 7 10 12 0 7 -16 204 -18 204 -3 0 6 18 10 40 10 22 0 40 -4
40 -10 0 -7 155 -10 445 -10 l445 0 475 475 c261 261 475 477 475 480 0 3
-1602 5 -3560 5 -2367 0 -3560 -3 -3560 -10 0 -5 -7 -10 -15 -10 -20 0 -125
-105 -125 -125 0 -8 -4 -15 -10 -15 -7 0 -10 -1029 -10 -3066 0 -2643 -2
-3067 -14 -3080 -12 -11 -63 -14 -280 -14 l-266 0 0 3100 c0 2060 3 3100 10
3100 6 0 10 18 10 40 0 22 5 40 10 40 6 0 10 14 10 30 0 17 5 30 10 30 6 0 10
14 10 30 0 17 5 30 10 30 6 0 10 8 10 18 0 10 9 24 20 32 11 8 20 22 20 32 0
10 5 18 10 18 6 0 10 7 10 15 0 20 205 225 225 225 8 0 15 5 15 10 0 6 8 10
18 10 10 0 24 9 32 20 8 11 22 20 32 20 10 0 18 5 18 10 0 6 14 10 30 10 17 0
30 5 30 10 0 6 14 10 30 10 17 0 30 5 30 10 0 6 18 10 40 10 22 0 40 5 40 10
0 7 1277 10 3810 10 2533 0 3810 -3 3810 -10z m-2594 -5144 c24 -25 17 -46
-16 -46 -32 0 -40 19 -17 45 15 18 16 18 33 1z m1274 -612 c0 -7 -27 -34 -34
-34 -3 0 -6 9 -6 20 0 13 7 20 20 20 11 0 20 -3 20 -6z m163 -229 c-3 -9 -8
-14 -10 -11 -3 3 -2 9 2 15 9 16 15 13 8 -4z m1343 -639 c19 -20 18 -26 -6
-26 -13 0 -20 7 -20 20 0 24 6 25 26 6z"/>
<path d="M10695 6770 c-2 -3 5 -7 16 -7 10 -1 19 2 19 6 0 9 -29 10 -35 1z"/>
<path d="M12480 5736 c0 -9 5 -16 10 -16 6 0 10 4 10 9 0 6 -4 13 -10 16 -5 3
-10 -1 -10 -9z"/>
</g>
</svg>
